<?xml version="1.0" encoding="UTF-8"?>
<svg xmlns="http://www.w3.org/2000/svg" xmlns:xlink="http://www.w3.org/1999/xlink" viewBox="0 0 48 48" width="24px" height="24px">
<g id="surface129087863">
<path style=" stroke:none;fill-rule:nonzero;fill:rgb(0% 0% 0%);fill-opacity:1;" d="M 32.851562 5.25 C 27.109375 5.25 22.441406 9.917969 22.441406 15.660156 C 22.441406 16.003906 22.527344 16.34375 22.558594 16.679688 C 15.460938 16 9.183594 12.582031 4.921875 7.351562 C 4.722656 7.097656 4.414062 6.964844 4.089844 6.984375 C 3.773438 7.007812 3.488281 7.191406 3.328125 7.46875 C 2.433594 9.011719 1.921875 10.785156 1.921875 12.691406 C 1.921875 14.996094 2.746094 17.109375 4.019531 18.839844 C 3.773438 18.730469 3.503906 18.671875 3.269531 18.539062 C 2.972656 18.382812 2.617188 18.390625 2.328125 18.5625 C 2.039062 18.734375 1.863281 19.046875 1.859375 19.378906 L 1.859375 19.5 C 1.859375 23.035156 3.691406 26.109375 6.390625 27.988281 C 6.359375 27.984375 6.328125 27.996094 6.300781 27.988281 C 5.96875 27.933594 5.636719 28.050781 5.414062 28.300781 C 5.195312 28.550781 5.121094 28.902344 5.21875 29.21875 C 6.292969 32.554688 9.03125 35.101562 12.421875 36.03125 C 9.71875 37.636719 6.589844 38.578125 3.210938 38.578125 C 2.480469 38.578125 1.777344 38.542969 1.078125 38.460938 C 0.628906 38.398438 0.199219 38.664062 0.046875 39.089844 C -0.105469 39.515625 0.0625 39.992188 0.449219 40.230469 C 4.78125 43.007812 9.921875 44.640625 15.449219 44.640625 C 24.410156 44.640625 31.4375 40.898438 36.148438 35.550781 C 40.863281 30.203125 43.320312 23.257812 43.320312 16.769531 C 43.320312 16.496094 43.296875 16.230469 43.289062 15.960938 C 45.046875 14.613281 46.621094 13.035156 47.851562 11.191406 C 48.09375 10.832031 48.066406 10.359375 47.785156 10.027344 C 47.507812 9.699219 47.039062 9.597656 46.648438 9.78125 C 46.15625 10 45.578125 10.023438 45.058594 10.199219 C 45.742188 9.289062 46.328125 8.304688 46.679688 7.199219 C 46.800781 6.820312 46.667969 6.40625 46.359375 6.15625 C 46.046875 5.914062 45.609375 5.882812 45.269531 6.089844 C 43.632812 7.0625 41.816406 7.742188 39.898438 8.160156 C 38.039062 6.421875 35.589844 5.25 32.851562 5.25 Z M 32.851562 7.171875 C 35.296875 7.171875 37.511719 8.214844 39.058594 9.871094 C 39.292969 10.109375 39.632812 10.210938 39.960938 10.140625 C 41.210938 9.890625 42.402344 9.527344 43.558594 9.058594 C 42.890625 9.960938 42.066406 10.730469 41.101562 11.308594 C 40.660156 11.523438 40.453125 12.03125 40.617188 12.492188 C 40.773438 12.949219 41.253906 13.214844 41.730469 13.109375 C 42.691406 12.992188 43.546875 12.605469 44.460938 12.359375 C 43.640625 13.25 42.738281 14.050781 41.761719 14.761719 C 41.492188 14.953125 41.347656 15.269531 41.371094 15.601562 C 41.386719 15.988281 41.398438 16.375 41.398438 16.769531 C 41.398438 22.769531 39.097656 29.285156 34.710938 34.261719 C 30.324219 39.234375 23.878906 42.71875 15.449219 42.71875 C 11.621094 42.71875 8.007812 41.871094 4.738281 40.378906 C 8.789062 40.070312 12.523438 38.636719 15.539062 36.269531 C 15.855469 36.019531 15.980469 35.597656 15.851562 35.214844 C 15.722656 34.832031 15.371094 34.570312 14.96875 34.558594 C 11.804688 34.503906 9.152344 32.664062 7.738281 30.058594 C 7.792969 30.058594 7.835938 30.058594 7.890625 30.058594 C 8.839844 30.058594 9.777344 29.941406 10.648438 29.699219 C 11.070312 29.578125 11.359375 29.1875 11.34375 28.746094 C 11.328125 28.308594 11.015625 27.933594 10.589844 27.839844 C 7.171875 27.148438 4.613281 24.367188 4.019531 20.910156 C 4.988281 21.242188 5.976562 21.507812 7.050781 21.539062 C 7.488281 21.566406 7.886719 21.292969 8.019531 20.875 C 8.15625 20.460938 7.992188 20.003906 7.621094 19.769531 C 5.339844 18.242188 3.839844 15.644531 3.839844 12.691406 C 3.839844 11.59375 4.125 10.589844 4.5 9.628906 C 9.300781 14.898438 16.019531 18.398438 23.609375 18.78125 C 23.910156 18.796875 24.203125 18.671875 24.398438 18.441406 C 24.59375 18.210938 24.667969 17.902344 24.601562 17.609375 C 24.453125 16.988281 24.359375 16.328125 24.359375 15.660156 C 24.359375 10.957031 28.148438 7.171875 32.851562 7.171875 Z M 32.851562 7.171875 "/>
</g>
</svg>
